<svg width="98" height="98" xmlns="http://www.w3.org/2000/svg" xmlns:xlink="http://www.w3.org/1999/xlink" xml:space="preserve" overflow="hidden"><defs><clipPath id="clip0"><rect x="882" y="478" width="98" height="98"/></clipPath><clipPath id="clip1"><rect x="883" y="479" width="96" height="96"/></clipPath><clipPath id="clip2"><rect x="883" y="479" width="96" height="96"/></clipPath><clipPath id="clip3"><rect x="883" y="479" width="96" height="96"/></clipPath></defs><g clip-path="url(#clip0)" transform="translate(-882 -478)"><g clip-path="url(#clip1)"><g clip-path="url(#clip2)"><g clip-path="url(#clip3)"><path d="M954.4 542.6C950.801 539.147 946.471 536.549 941.73 535 938.301 533.7 934.667 533.022 931 533 927.339 533.082 923.715 533.758 920.27 535 915.602 536.706 911.302 539.285 907.6 542.6 905.928 544.31 904.994 546.608 905 549L905 561 930 561 930 541.17 920.35 545.88C920.224 545.947 920.083 545.981 919.94 545.98 919.737 545.983 919.539 545.916 919.38 545.79 919.091 545.588 918.946 545.237 919.01 544.89L920.24 537.16 920.91 536.9C922.27 536.44 923.55 536.08 924.79 535.79 926.975 539.218 931.525 540.225 934.953 538.039 935.878 537.45 936.659 536.661 937.24 535.73 938.536 536.038 939.812 536.425 941.06 536.89L941.76 537.15 943 544.89C943.063 545.237 942.919 545.588 942.63 545.79 942.471 545.916 942.273 545.983 942.07 545.98 941.927 545.981 941.786 545.947 941.66 545.88L932 541.17 932 561 957 561 957 549C957.006 546.608 956.072 544.31 954.4 542.6Z" fill="#FFFFFF" fill-rule="nonzero" fill-opacity="1"/><path d="M943.69 511.39C942.677 509.072 941.269 506.947 939.53 505.11 937.782 506.942 935.805 508.541 933.65 509.87 930.578 511.632 927.347 513.102 924 514.26 923.477 514.437 922.909 514.156 922.732 513.633 922.595 513.228 922.731 512.781 923.07 512.52 924.013 511.662 924.766 510.617 925.28 509.45 925.4 509.19 925.5 508.96 925.58 508.73 924.929 509.411 924.216 510.03 923.45 510.58 921.815 511.738 920.006 512.626 918.09 513.21 917.33 514.264 916.784 515.456 916.48 516.72 916.328 517.472 916.228 518.234 916.18 519 919.504 527.188 928.836 531.13 937.023 527.806 940.944 526.214 944.075 523.134 945.73 519.24 945.367 516.551 944.682 513.915 943.69 511.39Z" fill="#FFFFFF" fill-rule="nonzero" fill-opacity="1"/><path d="M916.72 511.71C916.857 511.537 917.046 511.414 917.26 511.36 919.05 510.849 920.741 510.037 922.26 508.96 923.734 507.875 925.001 506.534 926 505 926.189 504.68 926.539 504.492 926.91 504.51 927.279 504.531 927.605 504.754 927.76 505.09 927.85 505.28 928.6 507.09 927.07 510.3 926.94 510.58 926.8 510.84 926.67 511.08 928.71 510.255 930.685 509.279 932.58 508.16 934.877 506.763 936.948 505.023 938.72 503 938.897 502.787 939.154 502.657 939.43 502.64 939.71 502.619 939.986 502.717 940.19 502.91 942.455 505.12 944.275 507.744 945.55 510.64 946.16 512.183 946.661 513.767 947.05 515.38 947.776 514.428 948.195 513.276 948.25 512.08 948.255 506.996 945.993 502.175 942.08 498.93L945.42 497.28C945.841 497.059 946.003 496.539 945.782 496.119 945.61 495.79 945.246 495.609 944.88 495.67L940.13 496.53 941.3 494.84C941.536 494.492 941.49 494.025 941.19 493.73 940.886 493.437 940.414 493.412 940.08 493.67L937.56 495.57 935.05 491C934.815 490.587 934.29 490.443 933.877 490.677 933.572 490.85 933.403 491.192 933.45 491.54L934 495.23C933.042 495.062 932.072 494.975 931.1 494.97 921.653 494.981 914 502.643 914 512.09 914.02 513.155 914.335 514.193 914.91 515.09 915.338 513.878 915.948 512.738 916.72 511.71Z" fill="#FFFFFF" fill-rule="nonzero" fill-opacity="1"/></g></g></g></g></svg>